<mxfile host="Electron" modified="2024-10-26T06:25:01.880Z" agent="Mozilla/5.0 (Macintosh; Intel Mac OS X 10_15_7) AppleWebKit/537.36 (KHTML, like Gecko) draw.io/24.6.4 Chrome/124.0.6367.207 Electron/30.0.6 Safari/537.36" etag="8Jf2wi3QR_AbL_SLK5kQ" version="24.6.4" type="device">
  <diagram name="페이지-1" id="v6XEDh-wdW4CSe11FKZ6">
    <mxGraphModel dx="1687" dy="1107" grid="1" gridSize="10" guides="1" tooltips="1" connect="1" arrows="1" fold="1" page="1" pageScale="1" pageWidth="827" pageHeight="1169" math="0" shadow="0">
      <root>
        <mxCell id="0" />
        <mxCell id="1" parent="0" />
        <mxCell id="aFMNV4ErqxvkBUVmdPjB-13" value="" style="rounded=0;whiteSpace=wrap;html=1;" vertex="1" parent="1">
          <mxGeometry x="50" y="30" width="600" height="290" as="geometry" />
        </mxCell>
        <mxCell id="aFMNV4ErqxvkBUVmdPjB-7" value="" style="edgeStyle=orthogonalEdgeStyle;rounded=0;orthogonalLoop=1;jettySize=auto;html=1;" edge="1" parent="1" source="aFMNV4ErqxvkBUVmdPjB-1" target="aFMNV4ErqxvkBUVmdPjB-3">
          <mxGeometry relative="1" as="geometry" />
        </mxCell>
        <mxCell id="aFMNV4ErqxvkBUVmdPjB-10" value="템플릿" style="edgeLabel;html=1;align=center;verticalAlign=middle;resizable=0;points=[];" vertex="1" connectable="0" parent="aFMNV4ErqxvkBUVmdPjB-7">
          <mxGeometry x="-0.125" y="3" relative="1" as="geometry">
            <mxPoint y="-12" as="offset" />
          </mxGeometry>
        </mxCell>
        <mxCell id="aFMNV4ErqxvkBUVmdPjB-1" value=".html" style="shape=note;size=20;whiteSpace=wrap;html=1;fontStyle=1" vertex="1" parent="1">
          <mxGeometry x="105" y="210" width="99" height="50" as="geometry" />
        </mxCell>
        <mxCell id="aFMNV4ErqxvkBUVmdPjB-8" value="" style="edgeStyle=orthogonalEdgeStyle;rounded=0;orthogonalLoop=1;jettySize=auto;html=1;" edge="1" parent="1" source="aFMNV4ErqxvkBUVmdPjB-3" target="aFMNV4ErqxvkBUVmdPjB-4">
          <mxGeometry relative="1" as="geometry" />
        </mxCell>
        <mxCell id="aFMNV4ErqxvkBUVmdPjB-11" value="생성" style="edgeLabel;html=1;align=center;verticalAlign=middle;resizable=0;points=[];" vertex="1" connectable="0" parent="aFMNV4ErqxvkBUVmdPjB-8">
          <mxGeometry x="-0.025" y="2" relative="1" as="geometry">
            <mxPoint y="-13" as="offset" />
          </mxGeometry>
        </mxCell>
        <mxCell id="aFMNV4ErqxvkBUVmdPjB-3" value="Thymeleaf" style="html=1;whiteSpace=wrap;fontStyle=1" vertex="1" parent="1">
          <mxGeometry x="285" y="210" width="119" height="50" as="geometry" />
        </mxCell>
        <mxCell id="aFMNV4ErqxvkBUVmdPjB-4" value="콘텐트" style="html=1;whiteSpace=wrap;fontStyle=1" vertex="1" parent="1">
          <mxGeometry x="485" y="210" width="119" height="50" as="geometry" />
        </mxCell>
        <mxCell id="aFMNV4ErqxvkBUVmdPjB-6" value="" style="edgeStyle=orthogonalEdgeStyle;rounded=0;orthogonalLoop=1;jettySize=auto;html=1;" edge="1" parent="1" source="aFMNV4ErqxvkBUVmdPjB-5" target="aFMNV4ErqxvkBUVmdPjB-3">
          <mxGeometry relative="1" as="geometry" />
        </mxCell>
        <mxCell id="aFMNV4ErqxvkBUVmdPjB-12" value="데이터 삽입 위치에&amp;nbsp;&lt;div&gt;데이터 삽입&lt;/div&gt;" style="edgeLabel;html=1;align=center;verticalAlign=middle;resizable=0;points=[];" vertex="1" connectable="0" parent="aFMNV4ErqxvkBUVmdPjB-6">
          <mxGeometry x="-0.1143" y="4" relative="1" as="geometry">
            <mxPoint x="46" as="offset" />
          </mxGeometry>
        </mxCell>
        <mxCell id="aFMNV4ErqxvkBUVmdPjB-5" value="ServletRequest" style="html=1;whiteSpace=wrap;fontStyle=1" vertex="1" parent="1">
          <mxGeometry x="285" y="90" width="119" height="50" as="geometry" />
        </mxCell>
        <mxCell id="aFMNV4ErqxvkBUVmdPjB-9" value="데이터를 삽입하는 위치 표시&lt;div&gt;data-th-text&lt;/div&gt;" style="text;html=1;align=center;verticalAlign=middle;whiteSpace=wrap;rounded=0;fontColor=#FF3333;" vertex="1" parent="1">
          <mxGeometry x="80" y="270" width="149" height="30" as="geometry" />
        </mxCell>
        <mxCell id="aFMNV4ErqxvkBUVmdPjB-14" value="웹에서도 읽기 가능" style="text;html=1;align=center;verticalAlign=middle;whiteSpace=wrap;rounded=0;" vertex="1" parent="1">
          <mxGeometry x="80" y="170" width="149" height="30" as="geometry" />
        </mxCell>
        <mxCell id="aFMNV4ErqxvkBUVmdPjB-15" value="" style="rounded=0;whiteSpace=wrap;html=1;" vertex="1" parent="1">
          <mxGeometry x="50" y="320" width="600" height="290" as="geometry" />
        </mxCell>
        <mxCell id="aFMNV4ErqxvkBUVmdPjB-19" style="edgeStyle=orthogonalEdgeStyle;rounded=0;orthogonalLoop=1;jettySize=auto;html=1;exitX=0.2;exitY=0.986;exitDx=0;exitDy=0;exitPerimeter=0;" edge="1" parent="1" source="aFMNV4ErqxvkBUVmdPjB-17" target="aFMNV4ErqxvkBUVmdPjB-18">
          <mxGeometry relative="1" as="geometry">
            <Array as="points">
              <mxPoint x="172.5" y="424" />
            </Array>
          </mxGeometry>
        </mxCell>
        <mxCell id="aFMNV4ErqxvkBUVmdPjB-22" value="data-th-text 무시" style="edgeLabel;html=1;align=center;verticalAlign=middle;resizable=0;points=[];" vertex="1" connectable="0" parent="aFMNV4ErqxvkBUVmdPjB-19">
          <mxGeometry x="-0.1491" relative="1" as="geometry">
            <mxPoint x="50" as="offset" />
          </mxGeometry>
        </mxCell>
        <mxCell id="aFMNV4ErqxvkBUVmdPjB-24" style="edgeStyle=orthogonalEdgeStyle;rounded=0;orthogonalLoop=1;jettySize=auto;html=1;" edge="1" parent="1" source="aFMNV4ErqxvkBUVmdPjB-17" target="aFMNV4ErqxvkBUVmdPjB-23">
          <mxGeometry relative="1" as="geometry" />
        </mxCell>
        <mxCell id="aFMNV4ErqxvkBUVmdPjB-17" value=".html&lt;div&gt;&lt;span style=&quot;font-weight: 400;&quot;&gt;&amp;lt;p data-th-text=&quot;${OGNL}&quot;&amp;gt;예제 텍스트&amp;lt;/p&amp;gt;&lt;/span&gt;&lt;br&gt;&lt;/div&gt;" style="shape=note;size=20;whiteSpace=wrap;html=1;fontStyle=1" vertex="1" parent="1">
          <mxGeometry x="112.5" y="375" width="290" height="50" as="geometry" />
        </mxCell>
        <mxCell id="aFMNV4ErqxvkBUVmdPjB-18" value="Web" style="html=1;whiteSpace=wrap;fontStyle=1" vertex="1" parent="1">
          <mxGeometry x="112.5" y="475" width="119" height="50" as="geometry" />
        </mxCell>
        <mxCell id="aFMNV4ErqxvkBUVmdPjB-20" value="&quot;예제 텍스트&quot; 출력" style="text;html=1;align=center;verticalAlign=middle;whiteSpace=wrap;rounded=0;fontColor=#FF3333;" vertex="1" parent="1">
          <mxGeometry x="97.5" y="525" width="149" height="30" as="geometry" />
        </mxCell>
        <mxCell id="aFMNV4ErqxvkBUVmdPjB-26" style="edgeStyle=orthogonalEdgeStyle;rounded=0;orthogonalLoop=1;jettySize=auto;html=1;" edge="1" parent="1" source="aFMNV4ErqxvkBUVmdPjB-23" target="aFMNV4ErqxvkBUVmdPjB-25">
          <mxGeometry relative="1" as="geometry" />
        </mxCell>
        <mxCell id="aFMNV4ErqxvkBUVmdPjB-23" value="Thymeleaf" style="html=1;whiteSpace=wrap;fontStyle=1" vertex="1" parent="1">
          <mxGeometry x="462.5" y="375" width="119" height="50" as="geometry" />
        </mxCell>
        <mxCell id="aFMNV4ErqxvkBUVmdPjB-25" value="Web" style="html=1;whiteSpace=wrap;fontStyle=1" vertex="1" parent="1">
          <mxGeometry x="462.5" y="475" width="119" height="50" as="geometry" />
        </mxCell>
        <mxCell id="aFMNV4ErqxvkBUVmdPjB-27" value="&quot;OGNL결과값&quot; 출력" style="text;html=1;align=center;verticalAlign=middle;whiteSpace=wrap;rounded=0;fontColor=#FF3333;" vertex="1" parent="1">
          <mxGeometry x="442.5" y="525" width="149" height="30" as="geometry" />
        </mxCell>
        <mxCell id="aFMNV4ErqxvkBUVmdPjB-28" value="" style="shape=curlyBracket;whiteSpace=wrap;html=1;rounded=1;labelPosition=left;verticalLabelPosition=middle;align=right;verticalAlign=middle;" vertex="1" parent="1">
          <mxGeometry x="240" y="470" width="10" height="60" as="geometry" />
        </mxCell>
        <mxCell id="aFMNV4ErqxvkBUVmdPjB-29" value="1. 템플릿 실행 없이도 웹브라우저에서 읽을 수 있다.&lt;div&gt;&lt;br&gt;&lt;div style=&quot;font-size: 10px;&quot;&gt;2. thymeleaf문법이 HTML문법을 준수하기 때문에&lt;/div&gt;&lt;div style=&quot;font-size: 10px;&quot;&gt;&amp;nbsp;소스 그래도 출력할때 화면에 보이지 않는다.&lt;/div&gt;&lt;/div&gt;" style="text;html=1;align=left;verticalAlign=middle;whiteSpace=wrap;rounded=0;fontColor=#FF3333;fontSize=10;" vertex="1" parent="1">
          <mxGeometry x="246.5" y="477.5" width="210" height="45" as="geometry" />
        </mxCell>
      </root>
    </mxGraphModel>
  </diagram>
</mxfile>
